HIERARCHY
ROOT mixamorig:Hips
{
	OFFSET -0.000008 104.274872 1.554316
	CHANNELS 6 Xposition Yposition Zposition Xrotation Yrotation Zrotation
	JOINT mixamorig:Spine
	{
		OFFSET -0.000005 10.181595 0.131519
		CHANNELS 6 Xposition Yposition Zposition Xrotation Yrotation Zrotation
		JOINT mixamorig:Spine1
		{
			OFFSET -0.000000 9.893959 -1.470707
			CHANNELS 6 Xposition Yposition Zposition Xrotation Yrotation Zrotation
			JOINT mixamorig:Spine2
			{
				OFFSET -0.000000 9.220757 -1.370641
				CHANNELS 6 Xposition Yposition Zposition Xrotation Yrotation Zrotation
				JOINT mixamorig:Neck
				{
					OFFSET 0.000001 16.740417 -2.049036
					CHANNELS 6 Xposition Yposition Zposition Xrotation Yrotation Zrotation
					JOINT mixamorig:Head
					{
						OFFSET 0.000000 9.617874 1.685006
						CHANNELS 6 Xposition Yposition Zposition Xrotation Yrotation Zrotation
						JOINT mixamorig:HeadTop_End
						{
							OFFSET 0.000002 22.037354 7.501101
							CHANNELS 6 Xposition Yposition Zposition Xrotation Yrotation Zrotation
							End Site
							{
								OFFSET 0.000168 2310.654297 -282.823242
							}
						}
					}
				}
				JOINT mixamorig:RightShoulder
				{
					OFFSET -4.569970 11.014908 -2.160885
					CHANNELS 6 Xposition Yposition Zposition Xrotation Yrotation Zrotation
					JOINT mixamorig:RightArm
					{
						OFFSET -10.592851 -0.524811 -2.232101
						CHANNELS 6 Xposition Yposition Zposition Xrotation Yrotation Zrotation
						JOINT mixamorig:RightForeArm
						{
							OFFSET -27.841511 0.000031 -0.000004
							CHANNELS 6 Xposition Yposition Zposition Xrotation Yrotation Zrotation
							JOINT mixamorig:RightHand
							{
								OFFSET -28.328831 -0.000015 0.000015
								CHANNELS 6 Xposition Yposition Zposition Xrotation Yrotation Zrotation
								JOINT mixamorig:RightHandThumb1
								{
									OFFSET -2.464806 -1.573990 2.681852
									CHANNELS 6 Xposition Yposition Zposition Xrotation Yrotation Zrotation
									JOINT mixamorig:RightHandThumb2
									{
										OFFSET -3.215179 -1.872803 1.924282
										CHANNELS 6 Xposition Yposition Zposition Xrotation Yrotation Zrotation
										JOINT mixamorig:RightHandThumb3
										{
											OFFSET -2.654831 -1.527969 1.512609
											CHANNELS 6 Xposition Yposition Zposition Xrotation Yrotation Zrotation
											JOINT mixamorig:RightHandThumb4
											{
												OFFSET -2.018814 -1.152008 1.108052
												CHANNELS 6 Xposition Yposition Zposition Xrotation Yrotation Zrotation
												End Site
												{
													OFFSET -188.809540 -114.533607 132.431396
												}
											}
										}
									}
								}
								JOINT mixamorig:RightHandIndex1
								{
									OFFSET -9.108284 -0.517868 2.259835
									CHANNELS 6 Xposition Yposition Zposition Xrotation Yrotation Zrotation
									JOINT mixamorig:RightHandIndex2
									{
										OFFSET -3.699989 0.000000 0.001215
										CHANNELS 6 Xposition Yposition Zposition Xrotation Yrotation Zrotation
										JOINT mixamorig:RightHandIndex3
										{
											OFFSET -2.850006 0.000031 -0.000522
											CHANNELS 6 Xposition Yposition Zposition Xrotation Yrotation Zrotation
											JOINT mixamorig:RightHandIndex4
											{
												OFFSET -2.772186 -0.000015 -0.000020
												CHANNELS 6 Xposition Yposition Zposition Xrotation Yrotation Zrotation
												End Site
												{
													OFFSET -277.218445 0.000000 -0.050231
												}
											}
										}
									}
								}
								JOINT mixamorig:RightHandMiddle1
								{
									OFFSET -9.532516 -0.000031 -0.000023
									CHANNELS 6 Xposition Yposition Zposition Xrotation Yrotation Zrotation
									JOINT mixamorig:RightHandMiddle2
									{
										OFFSET -3.700005 -0.000015 0.003713
										CHANNELS 6 Xposition Yposition Zposition Xrotation Yrotation Zrotation
										JOINT mixamorig:RightHandMiddle3
										{
											OFFSET -2.949974 0.000015 -0.002054
											CHANNELS 6 Xposition Yposition Zposition Xrotation Yrotation Zrotation
											JOINT mixamorig:RightHandMiddle4
											{
												OFFSET -2.946640 0.000000 -0.000156
												CHANNELS 6 Xposition Yposition Zposition Xrotation Yrotation Zrotation
												End Site
												{
													OFFSET -294.664337 0.000000 -0.113670
												}
											}
										}
									}
								}
								JOINT mixamorig:RightHandRing1
								{
									OFFSET -9.103600 -0.043076 -1.865134
									CHANNELS 6 Xposition Yposition Zposition Xrotation Yrotation Zrotation
									JOINT mixamorig:RightHandRing2
									{
										OFFSET -3.379288 0.000000 -0.001055
										CHANNELS 6 Xposition Yposition Zposition Xrotation Yrotation Zrotation
										JOINT mixamorig:RightHandRing3
										{
											OFFSET -2.889687 -0.000015 0.000379
											CHANNELS 6 Xposition Yposition Zposition Xrotation Yrotation Zrotation
											JOINT mixamorig:RightHandRing4
											{
												OFFSET -2.638809 -0.000015 0.000941
												CHANNELS 6 Xposition Yposition Zposition Xrotation Yrotation Zrotation
												End Site
												{
													OFFSET -263.880371 0.000000 0.516020
												}
											}
										}
									}
								}
								JOINT mixamorig:RightHandPinky1
								{
									OFFSET -8.076683 -0.486710 -3.806280
									CHANNELS 6 Xposition Yposition Zposition Xrotation Yrotation Zrotation
									JOINT mixamorig:RightHandPinky2
									{
										OFFSET -3.600014 -0.000015 -0.003747
										CHANNELS 6 Xposition Yposition Zposition Xrotation Yrotation Zrotation
										JOINT mixamorig:RightHandPinky3
										{
											OFFSET -2.099983 0.000000 -0.005739
											CHANNELS 6 Xposition Yposition Zposition Xrotation Yrotation Zrotation
											JOINT mixamorig:RightHandPinky4
											{
												OFFSET -2.115768 -0.000031 -0.003680
												CHANNELS 6 Xposition Yposition Zposition Xrotation Yrotation Zrotation
												End Site
												{
													OFFSET -211.577087 0.000000 -0.350686
												}
											}
										}
									}
								}
							}
						}
					}
				}
				JOINT mixamorig:LeftShoulder
				{
					OFFSET 4.570447 11.014725 -2.160855
					CHANNELS 6 Xposition Yposition Zposition Xrotation Yrotation Zrotation
					JOINT mixamorig:LeftArm
					{
						OFFSET 10.592371 -0.524597 -2.232119
						CHANNELS 6 Xposition Yposition Zposition Xrotation Yrotation Zrotation
						JOINT mixamorig:LeftForeArm
						{
							OFFSET 27.841532 -0.000031 0.000026
							CHANNELS 6 Xposition Yposition Zposition Xrotation Yrotation Zrotation
							JOINT mixamorig:LeftHand
							{
								OFFSET 28.328846 -0.000061 0.000022
								CHANNELS 6 Xposition Yposition Zposition Xrotation Yrotation Zrotation
								JOINT mixamorig:LeftHandThumb1
								{
									OFFSET 2.466141 -1.576172 2.681732
									CHANNELS 6 Xposition Yposition Zposition Xrotation Yrotation Zrotation
									JOINT mixamorig:LeftHandThumb2
									{
										OFFSET 3.217812 -1.872070 1.916482
										CHANNELS 6 Xposition Yposition Zposition Xrotation Yrotation Zrotation
										JOINT mixamorig:LeftHandThumb3
										{
											OFFSET 2.656029 -1.528778 1.514513
											CHANNELS 6 Xposition Yposition Zposition Xrotation Yrotation Zrotation
											JOINT mixamorig:LeftHandThumb4
											{
												OFFSET 2.020889 -1.154053 1.115139
												CHANNELS 6 Xposition Yposition Zposition Xrotation Yrotation Zrotation
												End Site
												{
													OFFSET 190.885437 -115.081749 130.048782
												}
											}
										}
									}
								}
								JOINT mixamorig:LeftHandIndex1
								{
									OFFSET 9.109314 -0.518021 2.259871
									CHANNELS 6 Xposition Yposition Zposition Xrotation Yrotation Zrotation
									JOINT mixamorig:LeftHandIndex2
									{
										OFFSET 3.699989 0.000000 -0.000322
										CHANNELS 6 Xposition Yposition Zposition Xrotation Yrotation Zrotation
										JOINT mixamorig:LeftHandIndex3
										{
											OFFSET 2.850006 0.000000 0.000352
											CHANNELS 6 Xposition Yposition Zposition Xrotation Yrotation Zrotation
											JOINT mixamorig:LeftHandIndex4
											{
												OFFSET 2.774864 -0.000031 -0.000027
												CHANNELS 6 Xposition Yposition Zposition Xrotation Yrotation Zrotation
												End Site
												{
													OFFSET 277.486267 0.000000 -0.009857
												}
											}
										}
									}
								}
								JOINT mixamorig:LeftHandMiddle1
								{
									OFFSET 9.533394 0.000061 0.000044
									CHANNELS 6 Xposition Yposition Zposition Xrotation Yrotation Zrotation
									JOINT mixamorig:LeftHandMiddle2
									{
										OFFSET 3.699989 -0.000015 -0.000231
										CHANNELS 6 Xposition Yposition Zposition Xrotation Yrotation Zrotation
										JOINT mixamorig:LeftHandMiddle3
										{
											OFFSET 2.949997 -0.000015 -0.000059
											CHANNELS 6 Xposition Yposition Zposition Xrotation Yrotation Zrotation
											JOINT mixamorig:LeftHandMiddle4
											{
												OFFSET 2.952896 0.000031 0.000063
												CHANNELS 6 Xposition Yposition Zposition Xrotation Yrotation Zrotation
												End Site
												{
													OFFSET 295.289337 0.000000 0.022810
												}
											}
										}
									}
								}
								JOINT mixamorig:LeftHandRing1
								{
									OFFSET 9.104523 -0.042999 -1.865074
									CHANNELS 6 Xposition Yposition Zposition Xrotation Yrotation Zrotation
									JOINT mixamorig:LeftHandRing2
									{
										OFFSET 3.150009 -0.000031 0.000043
										CHANNELS 6 Xposition Yposition Zposition Xrotation Yrotation Zrotation
										JOINT mixamorig:LeftHandRing3
										{
											OFFSET 2.949982 -0.000015 0.000040
											CHANNELS 6 Xposition Yposition Zposition Xrotation Yrotation Zrotation
											JOINT mixamorig:LeftHandRing4
											{
												OFFSET 2.644348 0.000000 0.000057
												CHANNELS 6 Xposition Yposition Zposition Xrotation Yrotation Zrotation
												End Site
												{
													OFFSET 264.434631 0.000000 0.012105
												}
											}
										}
									}
								}
								JOINT mixamorig:LeftHandPinky1
								{
									OFFSET 8.077789 -0.486847 -3.806259
									CHANNELS 6 Xposition Yposition Zposition Xrotation Yrotation Zrotation
									JOINT mixamorig:LeftHandPinky2
									{
										OFFSET 3.599953 0.000031 0.014727
										CHANNELS 6 Xposition Yposition Zposition Xrotation Yrotation Zrotation
										JOINT mixamorig:LeftHandPinky3
										{
											OFFSET 2.100021 0.000015 0.007705
											CHANNELS 6 Xposition Yposition Zposition Xrotation Yrotation Zrotation
											JOINT mixamorig:LeftHandPinky4
											{
												OFFSET 2.125504 0.000031 0.007517
												CHANNELS 6 Xposition Yposition Zposition Xrotation Yrotation Zrotation
												End Site
												{
													OFFSET 212.550781 0.000000 0.625752
												}
											}
										}
									}
								}
							}
						}
					}
				}
			}
		}
	}
	JOINT mixamorig:RightUpLeg
	{
		OFFSET -8.207787 -6.751648 -1.599560
		CHANNELS 6 Xposition Yposition Zposition Xrotation Yrotation Zrotation
		JOINT mixamorig:RightLeg
		{
			OFFSET -0.000002 -44.370117 0.345942
			CHANNELS 6 Xposition Yposition Zposition Xrotation Yrotation Zrotation
			JOINT mixamorig:RightFoot
			{
				OFFSET 0.000003 -44.423679 -3.043532
				CHANNELS 6 Xposition Yposition Zposition Xrotation Yrotation Zrotation
				JOINT mixamorig:RightToeBase
				{
					OFFSET -0.000002 -8.728671 10.710558
					CHANNELS 6 Xposition Yposition Zposition Xrotation Yrotation Zrotation
					JOINT mixamorig:RightToe_End
					{
						OFFSET -0.000001 -0.000679 9.278119
						CHANNELS 6 Xposition Yposition Zposition Xrotation Yrotation Zrotation
						End Site
						{
							OFFSET 0.000000 -0.067690 927.812134
						}
					}
				}
			}
		}
	}
	JOINT mixamorig:LeftUpLeg
	{
		OFFSET 8.207793 -6.751686 -1.599556
		CHANNELS 6 Xposition Yposition Zposition Xrotation Yrotation Zrotation
		JOINT mixamorig:LeftLeg
		{
			OFFSET -0.000004 -44.370014 0.346954
			CHANNELS 6 Xposition Yposition Zposition Xrotation Yrotation Zrotation
			JOINT mixamorig:LeftFoot
			{
				OFFSET -0.000001 -44.423672 -3.044401
				CHANNELS 6 Xposition Yposition Zposition Xrotation Yrotation Zrotation
				JOINT mixamorig:LeftToeBase
				{
					OFFSET -0.000002 -8.728669 10.710558
					CHANNELS 6 Xposition Yposition Zposition Xrotation Yrotation Zrotation
					JOINT mixamorig:LeftToe_End
					{
						OFFSET -0.000003 -0.000679 9.278133
						CHANNELS 6 Xposition Yposition Zposition Xrotation Yrotation Zrotation
						End Site
						{
							OFFSET 0.000000 -0.068021 927.813477
						}
					}
				}
			}
		}
	}
}
MOTION
Frames: 3
Frame Time: 0.033333
0.000006 104.270477 1.554256 0.000010 0.000003 -0.000113 -0.000005 10.181587 0.131522 0.000001 -0.000003 0.000084 -0.000000 9.893967 -1.470711 0.000001 0.000000 -0.000000 -0.000000 9.220802 -1.370642 0.000000 -0.000000 -0.000000 0.000001 16.740433 -2.049030 0.000000 -0.000000 -0.000000 0.000000 9.617859 1.685014 0.000000 0.000000 0.000000 0.000002 22.037384 7.501101 0.000000 -0.000000 0.000000 -4.569968 11.014880 -2.160881 0.000008 0.000001 -0.000038 -10.592857 -0.524796 -2.231854 65.845885 41.659701 -27.678206 -27.841520 0.000040 0.000523 -54.874057 125.281912 90.190811 -28.328823 0.000019 0.000026 -0.000321 -0.000044 0.000008 -2.464457 -1.573704 2.682299 -53.187223 -175.989496 -27.188389 -3.215273 -1.872550 1.924649 152.385373 32.235993 10.047884 -2.654948 -1.527897 1.513070 146.789549 27.040357 -36.330265 -2.018838 -1.152007 1.108066 -0.000001 -0.000001 0.000004 -9.108385 -0.517554 2.260103 96.942016 14.975318 -16.934836 -3.700063 0.000319 0.001500 93.411108 13.814811 -14.628734 -2.850078 0.000361 -0.000287 92.611546 11.145862 -11.661350 -2.772163 -0.000015 -0.000019 -0.000000 0.000000 0.000000 -9.532573 0.000261 0.000215 88.646409 15.682522 -15.459423 -3.700085 0.000319 0.003960 88.583237 14.163046 -13.725953 -2.950075 0.000328 -0.001822 91.653550 12.407734 -12.760755 -2.946625 -0.000015 -0.000158 -0.000001 0.000000 -0.000000 -9.103694 -0.042762 -1.864894 84.851973 18.475790 -16.868592 -3.379338 0.000303 -0.000835 86.366533 12.062533 -11.342602 -2.889755 0.000340 0.000619 94.174225 7.673969 -8.301957 -2.638816 -0.000028 0.000943 0.000003 0.000000 -0.000000 -8.076750 -0.486413 -3.806087 74.480870 17.636621 -13.334068 -3.600038 0.000265 -0.003567 77.078022 8.895100 -6.804408 -2.100019 0.000316 -0.005530 82.855830 4.977500 -4.201213 -2.115766 -0.000041 -0.003680 -0.000001 0.000000 -0.000004 4.570446 11.014691 -2.160851 -0.000018 0.000010 -0.000021 10.592424 -0.524603 -2.232279 -20.833498 -63.795572 -13.054539 27.841721 -0.000077 -0.000069 53.266562 -112.454208 73.731305 28.328840 -0.000044 0.000021 0.000020 -0.000089 0.000002 2.466114 -1.576178 2.681869 51.124932 114.737466 -101.095208 3.217802 -1.871999 1.916550 106.759040 143.984732 -152.827969 2.656058 -1.528760 1.514621 -74.054871 23.309573 25.376892 2.020898 -1.154069 1.115168 0.000000 0.000002 0.000003 9.109234 -0.517813 2.260112 73.487972 -157.880915 150.664452 3.700102 0.000117 -0.000325 -27.689401 -157.821151 -102.946913 2.850062 0.000280 0.000231 -67.936224 -172.308010 191.395165 2.774878 0.000004 -0.000033 0.000002 -0.000002 -0.000002 9.533148 0.000247 0.000218 -156.279673 -25.911946 -95.220938 3.700053 0.000288 -0.000347 -244.220572 -6.500802 -349.662000 2.949994 0.000194 -0.000232 -277.274535 5.831768 -365.133744 2.952853 0.000000 0.000067 0.000001 0.000000 -0.000001 9.104312 -0.042956 -1.864963 -171.993808 -22.214036 -140.756771 3.149972 0.000317 -0.000139 -254.058886 6.123719 -8.110136 2.949925 0.000217 -0.000177 -282.443075 16.998908 -13.691708 2.644323 0.000029 0.000060 -0.000000 0.000002 0.000001 8.077520 -0.486739 -3.806150 -172.712302 -13.674714 -122.650977 3.599889 0.000343 0.014537 -251.787301 12.795235 -17.182644 2.099929 0.000193 0.007507 -286.241726 20.683450 -15.415966 2.125497 -0.000030 0.007504 -0.000002 -0.000000 -0.000000 -8.207786 -6.751667 -1.599560 -0.077001 -0.000003 0.000080 -0.000002 -44.370110 0.345938 0.153719 -0.000000 -0.000000 0.000000 -44.423679 -3.043532 -0.076700 0.000000 -0.000002 -0.000006 -8.728667 10.710559 -0.000009 -0.000000 -0.000000 -0.000001 -0.000679 9.278123 0.000000 -0.000000 -0.000000 8.207792 -6.751710 -1.599556 -0.074518 -0.000003 0.000081 -0.000002 -44.370014 0.346960 0.148822 0.000002 0.000000 -0.000001 -44.423664 -3.044403 -0.074314 0.000000 -0.000002 -0.000004 -8.728671 10.710558 0.000007 -0.000000 -0.000000 0.000000 -0.000680 9.278137 -0.000000 0.000000 -0.000001 
0.000006 104.270477 1.554256 0.000010 0.000003 -0.000113 -0.000005 10.181587 0.131522 0.000001 -0.000003 0.000084 -0.000000 9.893967 -1.470711 0.000001 0.000000 -0.000000 -0.000000 9.220802 -1.370642 0.000000 -0.000000 -0.000000 0.000001 16.740433 -2.049030 0.000000 -0.000000 -0.000000 0.000000 9.617859 1.685014 0.000000 0.000000 0.000000 0.000002 22.037384 7.501101 0.000000 -0.000000 0.000000 -4.569968 11.014880 -2.160881 0.000008 0.000001 -0.000038 -10.592852 -0.524800 -2.231838 66.623967 44.792565 -30.306601 -27.841520 0.000011 0.000544 -54.490453 116.481431 79.508245 -28.328829 0.000018 0.000027 -0.000322 -0.000044 0.000007 -2.464453 -1.573700 2.682302 -53.168306 -175.884556 -27.083394 -3.215277 -1.872551 1.924628 152.231830 32.415661 11.459236 -2.654969 -1.527889 1.513071 147.121168 27.032791 -35.745232 -2.018834 -1.151997 1.108068 -0.000001 -0.000001 0.000002 -9.108368 -0.517529 2.260108 97.041504 15.041415 -17.038506 -3.700077 0.000312 0.001493 93.752720 14.015406 -14.929120 -2.850096 0.000372 -0.000262 93.076135 11.361726 -11.983282 -2.772156 -0.000000 -0.000019 0.000000 -0.000002 -0.000000 -9.532579 0.000269 0.000225 88.767386 15.648559 -15.458385 -3.700089 0.000311 0.003950 88.598038 14.136260 -13.703331 -2.950062 0.000338 -0.001806 91.581403 12.382590 -12.718997 -2.946617 -0.000015 -0.000158 -0.000001 0.000000 -0.000000 -9.103699 -0.042755 -1.864897 85.177302 18.407081 -16.900238 -3.379323 0.000299 -0.000859 86.468153 12.015308 -11.318180 -2.889753 0.000367 0.000628 94.081457 7.646066 -8.258583 -2.638803 -0.000016 0.000943 -0.000001 -0.000000 -0.000002 -8.076746 -0.486399 -3.806098 74.757855 17.665530 -13.422789 -3.600036 0.000279 -0.003581 77.401268 8.924208 -6.867107 -2.099994 0.000314 -0.005541 83.077360 4.918976 -4.165898 -2.115771 -0.000040 -0.003679 0.000005 0.000000 -0.000002 4.570446 11.014691 -2.160851 -0.000018 0.000010 -0.000021 10.592453 -0.524604 -2.232313 -4.291597 -69.829969 -2.996170 27.841743 -0.000050 -0.000089 49.562974 -109.382659 66.195482 28.328833 -0.000011 0.000021 0.000020 -0.000088 -0.000000 2.466091 -1.576199 2.681858 43.332687 116.188075 -94.641970 3.217844 -1.871981 1.916547 101.698983 147.379827 -150.804594 2.656085 -1.528723 1.514631 -72.340159 14.666605 22.743671 2.020875 -1.154066 1.115142 0.000000 0.000002 0.000003 9.109187 -0.517804 2.260103 59.773499 -156.649227 140.454876 3.700078 0.000251 -0.000417 -62.863695 -165.909912 -157.108968 2.850024 0.000187 0.000184 -100.073992 -175.128960 184.081685 2.774889 -0.000022 -0.000032 -0.000000 0.000001 0.000002 9.533226 0.000344 0.000255 -140.521129 -21.676995 -56.159619 3.700026 0.000264 -0.000375 -251.196435 -2.745900 -356.168301 2.950003 0.000145 -0.000232 -290.755634 9.461853 -366.539124 2.952872 -0.000046 0.000060 0.000003 0.000000 0.000001 9.104269 -0.042874 -1.864944 -165.698982 -20.681738 -110.978792 3.149957 0.000301 -0.000141 -258.184538 9.997930 -12.288297 2.949914 0.000156 -0.000167 -293.745590 21.016052 -13.802617 2.644312 0.000017 0.000056 0.000002 -0.000001 -0.000001 8.077514 -0.486641 -3.806142 -167.988790 -12.528831 -92.305171 3.599867 0.000319 0.014533 -253.950750 13.822361 -17.888284 2.099936 0.000182 0.007493 -289.765093 21.487145 -15.043500 2.125496 -0.000015 0.007515 -0.000001 -0.000001 0.000000 -8.207786 -6.751667 -1.599560 -0.077001 -0.000003 0.000080 -0.000002 -44.370110 0.345938 0.153719 -0.000000 -0.000000 0.000000 -44.423679 -3.043532 -0.076700 0.000000 -0.000002 -0.000006 -8.728667 10.710559 -0.000009 -0.000000 -0.000000 -0.000001 -0.000679 9.278123 0.000000 -0.000000 -0.000000 8.207792 -6.751710 -1.599556 -0.074518 -0.000003 0.000081 -0.000002 -44.370014 0.346960 0.148822 0.000002 0.000000 -0.000001 -44.423664 -3.044403 -0.074314 0.000000 -0.000002 -0.000004 -8.728671 10.710558 0.000007 -0.000000 -0.000000 0.000000 -0.000680 9.278137 -0.000000 0.000000 -0.000001 
0.000006 104.270477 1.554256 0.000010 0.000003 -0.000113 -0.000005 10.181587 0.131522 0.000001 -0.000003 0.000084 -0.000000 9.893967 -1.470711 0.000001 0.000000 -0.000000 -0.000000 9.220802 -1.370642 0.000000 -0.000000 -0.000000 0.000001 16.740433 -2.049030 0.000000 -0.000000 -0.000000 0.000000 9.617859 1.685014 0.000000 0.000000 0.000000 0.000002 22.037384 7.501101 0.000000 -0.000000 0.000000 -4.569968 11.014880 -2.160881 0.000008 0.000001 -0.000038 -10.592876 -0.524765 -2.231894 67.100045 31.697760 -21.323600 -27.841532 0.000009 0.000577 -54.058164 116.898319 79.443460 -28.328836 0.000021 0.000026 -0.000319 -0.000043 0.000007 -2.464456 -1.573712 2.682315 -51.065742 -171.391590 -19.118466 -3.215256 -1.872564 1.924633 151.932900 32.636970 13.373539 -2.654964 -1.527874 1.513079 146.778211 27.034664 -36.414587 -2.018831 -1.152013 1.108062 -0.000003 0.000001 0.000004 -9.108397 -0.517547 2.260125 96.846058 14.989564 -16.922697 -3.700058 0.000334 0.001487 93.732885 13.883393 -14.783417 -2.850098 0.000369 -0.000275 93.045802 11.315852 -11.928644 -2.772163 0.000000 -0.000019 0.000000 0.000000 0.000000 -9.532605 0.000268 0.000217 88.727600 15.442312 -15.245631 -3.700079 0.000312 0.003955 88.579214 14.009280 -13.575044 -2.950064 0.000324 -0.001822 91.612351 12.395373 -12.738951 -2.946640 0.000001 -0.000155 -0.000002 0.000000 0.000000 -9.103718 -0.042760 -1.864898 85.128602 18.533713 -17.002757 -3.379347 0.000306 -0.000849 86.378541 12.050404 -11.333564 -2.889783 0.000344 0.000630 94.099332 7.693810 -8.312437 -2.638824 -0.000017 0.000940 0.000001 -0.000000 0.000000 -8.076767 -0.486398 -3.806084 74.748108 18.017429 -13.691532 -3.600053 0.000259 -0.003563 77.394117 9.119500 -7.022260 -2.100027 0.000310 -0.005519 83.430262 5.106939 -4.358895 -2.115761 -0.000028 -0.003679 0.000001 -0.000001 -0.000003 4.570446 11.014691 -2.160851 -0.000018 0.000010 -0.000021 10.592461 -0.524586 -2.232329 11.976956 -67.407656 8.005044 27.841740 -0.000081 -0.000079 47.536057 -111.662221 65.948352 28.328850 -0.000012 0.000028 0.000020 -0.000088 -0.000001 2.466096 -1.576161 2.681877 23.676257 117.433915 -75.805968 3.217838 -1.871972 1.916547 89.554182 141.650200 -142.129352 2.656073 -1.528739 1.514627 -80.693091 18.691011 27.227856 2.020907 -1.154083 1.115143 0.000003 0.000003 0.000002 9.109181 -0.517794 2.260117 60.722765 -151.670033 133.387420 3.700100 0.000194 -0.000413 -59.852470 -160.900720 -147.386548 2.850055 0.000212 0.000184 -93.017539 -172.254174 187.348223 2.774889 -0.000028 -0.000028 -0.000000 -0.000001 -0.000001 9.533142 0.000257 0.000205 -161.113658 -24.118665 -104.202732 3.700057 0.000271 -0.000374 -249.452715 -6.903669 -350.056265 2.949996 0.000171 -0.000212 -282.761499 3.044020 -362.430055 2.952868 -0.000013 0.000062 0.000002 0.000002 0.000002 9.104466 -0.043024 -1.864991 -182.848932 -19.400300 -196.543925 3.149976 0.000280 -0.000131 -257.918571 6.109830 -7.550533 2.949942 0.000193 -0.000174 -285.889070 12.754417 -9.646800 2.644310 0.000062 0.000064 -0.000001 0.000004 -0.000003 8.077816 -0.486847 -3.806188 -185.683979 -10.931133 -229.082728 3.599899 0.000318 0.014532 -255.686219 11.518937 -14.373957 2.099929 0.000198 0.007495 -285.850629 17.326122 -12.934379 2.125506 -0.000001 0.007518 -0.000004 0.000003 -0.000004 -8.207786 -6.751667 -1.599560 -0.077001 -0.000003 0.000080 -0.000002 -44.370110 0.345938 0.153719 -0.000000 -0.000000 0.000000 -44.423679 -3.043532 -0.076700 0.000000 -0.000002 -0.000006 -8.728667 10.710559 -0.000009 -0.000000 -0.000000 -0.000001 -0.000679 9.278123 0.000000 -0.000000 -0.000000 8.207792 -6.751710 -1.599556 -0.074518 -0.000003 0.000081 -0.000002 -44.370014 0.346960 0.148822 0.000002 0.000000 -0.000001 -44.423664 -3.044403 -0.074314 0.000000 -0.000002 -0.000004 -8.728671 10.710558 0.000007 -0.000000 -0.000000 0.000000 -0.000680 9.278137 -0.000000 0.000000 -0.000001 
